<svg width="89" height="20" viewBox="0 0 89 20" fill="none" xmlns="http://www.w3.org/2000/svg">
<path d="M59.0601 14.5402C59.2334 14.5402 59.3667 14.6202 59.4601 14.7802C59.5667 14.9402 59.6201 15.1602 59.6201 15.4402C59.6201 15.9735 59.4934 16.3869 59.2401 16.6802C58.6267 17.3869 57.9934 17.9669 57.3401 18.4202C56.7001 18.8735 55.9667 19.1002 55.1401 19.1002C54.4601 19.1002 53.9467 18.9069 53.6001 18.5202C53.2534 18.1202 53.0801 17.5469 53.0801 16.8002C53.0801 16.4269 53.1734 15.7602 53.3601 14.8002C53.5334 13.9602 53.6201 13.3802 53.6201 13.0602C53.6201 12.8469 53.5467 12.7402 53.4001 12.7402C53.2267 12.7402 52.9801 12.9669 52.6601 13.4202C52.3401 13.8602 52.0201 14.4469 51.7001 15.1802C51.3801 15.9135 51.1201 16.6869 50.9201 17.5002C50.6667 18.5669 50.0401 19.1002 49.0401 19.1002C48.6401 19.1002 48.3734 18.9602 48.2401 18.6802C48.1201 18.3869 48.0601 17.8669 48.0601 17.1202C48.0601 16.6935 48.0667 16.3535 48.0801 16.1002L48.1001 14.5002C48.1001 12.4469 48.3067 10.3069 48.7201 8.0802C49.1467 5.85353 49.7667 3.98686 50.5801 2.4802C51.4067 0.960195 52.3934 0.200195 53.5401 0.200195C54.1534 0.200195 54.6467 0.466862 55.0201 1.0002C55.4067 1.5202 55.6001 2.2002 55.6001 3.0402C55.6001 4.38686 55.2067 5.78686 54.4201 7.2402C53.6334 8.6802 52.3534 10.3669 50.5801 12.3002C50.5401 12.9935 50.5201 13.7069 50.5201 14.4402C50.9601 13.3069 51.4467 12.3869 51.9801 11.6802C52.5267 10.9602 53.0601 10.4469 53.5801 10.1402C54.1134 9.83353 54.6001 9.6802 55.0401 9.6802C55.9067 9.6802 56.3401 10.1135 56.3401 10.9802C56.3401 11.5002 56.1934 12.4402 55.9001 13.8002C55.6467 14.9602 55.5201 15.7269 55.5201 16.1002C55.5201 16.6335 55.7134 16.9002 56.1001 16.9002C56.3667 16.9002 56.6801 16.7402 57.0401 16.4202C57.4134 16.0869 57.9067 15.5535 58.5201 14.8202C58.6801 14.6335 58.8601 14.5402 59.0601 14.5402ZM53.1201 2.1802C52.8801 2.1802 52.6134 2.52686 52.3201 3.2202C52.0267 3.9002 51.7401 4.82686 51.4601 6.0002C51.1934 7.1602 50.9734 8.42686 50.8001 9.8002C51.6267 8.82686 52.3067 7.76686 52.8401 6.6202C53.3867 5.47353 53.6601 4.43353 53.6601 3.5002C53.6601 3.07353 53.6134 2.74686 53.5201 2.5202C53.4267 2.29353 53.2934 2.1802 53.1201 2.1802Z" fill="#363636"/>
<path d="M61.4591 19.1002C60.6325 19.1002 59.9725 18.8002 59.4791 18.2002C58.9858 17.6002 58.7391 16.8135 58.7391 15.8402C58.7391 14.7735 58.9858 13.7669 59.4791 12.8202C59.9725 11.8602 60.6258 11.0935 61.4391 10.5202C62.2658 9.93353 63.1391 9.6402 64.0591 9.6402C64.3525 9.6402 64.5458 9.7002 64.6391 9.8202C64.7458 9.92686 64.8325 10.1269 64.8991 10.4202C65.1791 10.3669 65.4725 10.3402 65.7791 10.3402C66.4325 10.3402 66.7591 10.5735 66.7591 11.0402C66.7591 11.3202 66.6591 11.9869 66.4591 13.0402C66.1525 14.5735 65.9991 15.6402 65.9991 16.2402C65.9991 16.4402 66.0458 16.6002 66.1391 16.7202C66.2458 16.8402 66.3791 16.9002 66.5391 16.9002C66.7925 16.9002 67.0991 16.7402 67.4591 16.4202C67.8191 16.0869 68.3058 15.5535 68.9191 14.8202C69.0791 14.6335 69.2591 14.5402 69.4591 14.5402C69.6325 14.5402 69.7658 14.6202 69.8591 14.7802C69.9658 14.9402 70.0191 15.1602 70.0191 15.4402C70.0191 15.9735 69.8925 16.3869 69.6391 16.6802C69.0925 17.3602 68.5125 17.9335 67.8991 18.4002C67.2858 18.8669 66.6925 19.1002 66.1191 19.1002C65.6791 19.1002 65.2725 18.9535 64.8991 18.6602C64.5391 18.3535 64.2658 17.9402 64.0791 17.4202C63.3858 18.5402 62.5125 19.1002 61.4591 19.1002ZM62.1791 17.0802C62.4725 17.0802 62.7525 16.9069 63.0191 16.5602C63.2858 16.2135 63.4791 15.7535 63.5991 15.1802L64.3391 11.5002C63.7791 11.5135 63.2591 11.7269 62.7791 12.1402C62.3125 12.5402 61.9391 13.0735 61.6591 13.7402C61.3791 14.4069 61.2391 15.1135 61.2391 15.8602C61.2391 16.2735 61.3191 16.5802 61.4791 16.7802C61.6525 16.9802 61.8858 17.0802 62.1791 17.0802Z" fill="#363636"/>
<path d="M81.5666 15.2012C81.4733 15.0412 81.74 15.2012 81.5666 15.2012C82.0561 15.9354 81.7617 16.118 81 17C80.4533 17.6667 79.787 17.9202 79.1337 18.4002C78.4803 18.8669 77.8337 19.1002 77.1937 19.1002C76.1803 19.1002 75.407 18.5069 74.8737 17.3202C74.3137 18.0269 73.8203 18.5002 73.3937 18.7402C72.9803 18.9802 72.4937 19.1002 71.9337 19.1002C71.1203 19.1002 70.447 18.8002 69.9137 18.2002C69.3937 17.5869 69.1337 16.7935 69.1337 15.8202C69.1337 14.7535 69.3603 13.7669 69.8137 12.8602C70.267 11.9402 70.887 11.1935 71.6737 10.6202C72.4737 10.0335 73.367 9.68686 74.3537 9.5802C74.607 6.99353 75.087 4.78686 75.7937 2.9602C76.5137 1.1202 77.4537 0.200195 78.6137 0.200195C79.187 0.200195 79.6603 0.460196 80.0337 0.980196C80.4203 1.5002 80.6137 2.28686 80.6137 3.3402C80.6137 4.83353 80.247 6.5802 79.5137 8.5802C78.7803 10.5802 77.8003 12.6335 76.5737 14.7402C76.6163 15.3593 76.5937 16.9002 77.5254 16.9002C78.9286 16.9002 80.0914 16.2429 80.9657 15.2012C81.1257 15.0145 81.3666 15.2012 81.5666 15.2012ZM78.3937 2.1602C78.1403 2.1602 77.887 2.61353 77.6337 3.5202C77.3803 4.41353 77.1603 5.58686 76.9737 7.0402C76.8003 8.49353 76.6737 10.0135 76.5937 11.6002C78.087 8.34686 78.8337 5.73353 78.8337 3.7602C78.8337 3.25353 78.787 2.8602 78.6937 2.5802C78.6137 2.3002 78.5137 2.1602 78.3937 2.1602ZM72.6337 17.0802C72.887 17.0802 73.1403 16.9802 73.3937 16.7802C73.647 16.5669 73.967 16.1802 74.3537 15.6202C74.2203 14.9002 74.1537 14.0935 74.1537 13.2002C74.1537 12.8802 74.167 12.3602 74.1937 11.6402C73.4603 11.8669 72.847 12.3602 72.3537 13.1202C71.8737 13.8669 71.6337 14.7002 71.6337 15.6202C71.6337 16.5935 71.967 17.0802 72.6337 17.0802Z" fill="#363636"/>
<path d="M87.5266 16.8202C87.82 16.8069 88.04 16.9135 88.1866 17.1402C88.3466 17.3535 88.4266 17.6202 88.4266 17.9402C88.4266 18.2735 88.3466 18.5669 88.1866 18.8202C88.04 19.0735 87.8333 19.2002 87.5666 19.2002C87.0866 19.2002 86.6333 19.1935 86.2066 19.1802C85.7933 19.1669 85.4266 19.1535 85.1066 19.1402C83.88 19.0869 83.0133 19.0602 82.5066 19.0602C82.3333 19.0602 82.08 19.1202 81.7466 19.2402C81.32 19.3735 81.0266 19.4402 80.8666 19.4402C80.16 19.4402 79.8066 18.9869 79.8066 18.0802C79.8066 17.4669 80.0266 16.7735 80.4666 16.0002C80.9066 15.2135 81.48 14.4535 82.1866 13.7202C82.8933 12.9869 83.6266 12.3735 84.3866 11.8802L81.5666 11.9602C81.2733 11.9735 81.0466 11.8735 80.8866 11.6602C80.74 11.4335 80.6666 11.1669 80.6666 10.8602C80.6666 10.5402 80.74 10.2602 80.8866 10.0202C81.0466 9.76686 81.26 9.6402 81.5266 9.6402C82.1133 9.6402 82.84 9.68686 83.7066 9.7802C83.8533 9.79353 84.1666 9.8202 84.6466 9.8602C85.14 9.9002 85.5933 9.9202 86.0066 9.9202C86.14 9.9202 86.3933 9.86686 86.7666 9.7602C86.8333 9.74686 86.96 9.71353 87.1466 9.6602C87.3466 9.60686 87.5133 9.5802 87.6466 9.5802C87.86 9.5802 88.0333 9.67353 88.1666 9.8602C88.3133 10.0469 88.3866 10.3335 88.3866 10.7202C88.3866 11.1469 88.28 11.4869 88.0666 11.7402C87.8666 11.9935 87.56 12.2202 87.1466 12.4202C86.68 12.6335 86.1333 13.0002 85.5066 13.5202C84.88 14.0402 84.2866 14.6202 83.7266 15.2602C83.1666 15.8869 82.7533 16.4802 82.4866 17.0402L87.5266 16.8202Z" fill="#363636"/>
<path d="M16.8202 2.4002C17.2335 2.4802 17.5402 2.6202 17.7402 2.8202C17.9535 3.0202 18.0602 3.25353 18.0602 3.5202C18.0602 3.9602 17.9335 4.2802 17.6802 4.4802C17.4402 4.6802 17.0535 4.7602 16.5202 4.7202C15.3202 4.62686 14.3802 4.56686 13.7002 4.5402C13.0335 4.5002 12.1535 4.47353 11.0602 4.4602C10.5669 6.91353 10.1135 9.3802 9.7002 11.8602C9.55353 12.7669 9.4002 13.8202 9.2402 15.0202C9.0802 16.2069 8.97353 17.1669 8.9202 17.9002C8.89353 18.2869 8.73353 18.5869 8.4402 18.8002C8.14686 19.0002 7.79353 19.1002 7.3802 19.1002C6.9402 19.1002 6.6002 18.9935 6.3602 18.7802C6.1202 18.5669 6.0002 18.2869 6.0002 17.9402C6.0002 17.6202 6.04686 17.0935 6.1402 16.3602C6.24686 15.6135 6.36686 14.8335 6.5002 14.0202C6.64686 13.2069 6.7602 12.5002 6.8402 11.9002C6.98686 10.8869 7.15353 9.8802 7.3402 8.8802C7.52686 7.8802 7.71353 6.93353 7.9002 6.0402C7.9402 5.8402 7.98686 5.61353 8.0402 5.3602C8.09353 5.09353 8.15353 4.8002 8.2202 4.4802C6.91353 4.5202 5.88686 4.62686 5.1402 4.8002C4.39353 4.97353 3.8602 5.2202 3.5402 5.5402C3.23353 5.84686 3.0802 6.24686 3.0802 6.7402C3.0802 7.19353 3.21353 7.62686 3.4802 8.0402C3.53353 8.13353 3.5602 8.23353 3.5602 8.3402C3.5602 8.59353 3.40686 8.83353 3.1002 9.0602C2.80686 9.27353 2.5002 9.3802 2.1802 9.3802C1.95353 9.3802 1.76686 9.31353 1.6202 9.1802C1.35353 8.95353 1.13353 8.63353 0.960195 8.2202C0.786862 7.79353 0.700195 7.31353 0.700195 6.7802C0.700195 5.64686 1.06686 4.7402 1.8002 4.0602C2.54686 3.36686 3.67353 2.8602 5.1802 2.5402C6.7002 2.2202 8.64686 2.0602 11.0202 2.0602C12.4869 2.0602 13.6535 2.08686 14.5202 2.1402C15.4002 2.19353 16.1669 2.2802 16.8202 2.4002Z" fill="#363636"/>
<path d="M27.0055 14.5402C27.1788 14.5402 27.3122 14.6202 27.4055 14.7802C27.5122 14.9402 27.5655 15.1602 27.5655 15.4402C27.5655 15.9735 27.4388 16.3869 27.1855 16.6802C26.5722 17.3869 25.9388 17.9669 25.2855 18.4202C24.6455 18.8735 23.9122 19.1002 23.0855 19.1002C22.4055 19.1002 21.8922 18.9069 21.5455 18.5202C21.1988 18.1202 21.0255 17.5469 21.0255 16.8002C21.0255 16.4269 21.1188 15.7602 21.3055 14.8002C21.4788 13.9602 21.5655 13.3802 21.5655 13.0602C21.5655 12.8469 21.4922 12.7402 21.3455 12.7402C21.1722 12.7402 20.9255 12.9669 20.6055 13.4202C20.2855 13.8602 19.9655 14.4469 19.6455 15.1802C19.3255 15.9135 19.0655 16.6869 18.8655 17.5002C18.6122 18.5669 17.9855 19.1002 16.9855 19.1002C16.5855 19.1002 16.3188 18.9602 16.1855 18.6802C16.0655 18.3869 16.0055 17.8669 16.0055 17.1202C16.0055 16.6935 16.0122 16.3535 16.0255 16.1002L16.0455 14.5002C16.0455 12.4469 16.2522 10.3069 16.6655 8.0802C17.0922 5.85353 17.7122 3.98686 18.5255 2.4802C19.3522 0.960195 20.3388 0.200195 21.4855 0.200195C22.0988 0.200195 22.5922 0.466862 22.9655 1.0002C23.3522 1.5202 23.5455 2.2002 23.5455 3.0402C23.5455 4.38686 23.1522 5.78686 22.3655 7.2402C21.5788 8.6802 20.2988 10.3669 18.5255 12.3002C18.4855 12.9935 18.4655 13.7069 18.4655 14.4402C18.9055 13.3069 19.3922 12.3869 19.9255 11.6802C20.4722 10.9602 21.0055 10.4469 21.5255 10.1402C22.0588 9.83353 22.5455 9.6802 22.9855 9.6802C23.8522 9.6802 24.2855 10.1135 24.2855 10.9802C24.2855 11.5002 24.1388 12.4402 23.8455 13.8002C23.5922 14.9602 23.4655 15.7269 23.4655 16.1002C23.4655 16.6335 23.6588 16.9002 24.0455 16.9002C24.3122 16.9002 24.6255 16.7402 24.9855 16.4202C25.3588 16.0869 25.8522 15.5535 26.4655 14.8202C26.6255 14.6335 26.8055 14.5402 27.0055 14.5402ZM21.0655 2.1802C20.8255 2.1802 20.5588 2.52686 20.2655 3.2202C19.9722 3.9002 19.6855 4.82686 19.4055 6.0002C19.1388 7.1602 18.9188 8.42686 18.7455 9.8002C19.5722 8.82686 20.2522 7.76686 20.7855 6.6202C21.3322 5.47353 21.6055 4.43353 21.6055 3.5002C21.6055 3.07353 21.5588 2.74686 21.4655 2.5202C21.3722 2.29353 21.2388 2.1802 21.0655 2.1802Z" fill="#363636"/>
<path d="M35.8646 14.5402C36.0379 14.5402 36.1712 14.6202 36.2646 14.7802C36.3712 14.9402 36.4246 15.1602 36.4246 15.4402C36.4246 15.9735 36.2979 16.3869 36.0446 16.6802C35.5512 17.2802 34.8512 17.8335 33.9446 18.3402C33.0512 18.8469 32.0912 19.1002 31.0646 19.1002C29.6646 19.1002 28.5779 18.7202 27.8046 17.9602C27.0312 17.2002 26.6446 16.1602 26.6446 14.8402C26.6446 13.9202 26.8379 13.0669 27.2246 12.2802C27.6112 11.4802 28.1446 10.8469 28.8246 10.3802C29.5179 9.91353 30.2979 9.6802 31.1646 9.6802C31.9379 9.6802 32.5579 9.91353 33.0246 10.3802C33.4912 10.8335 33.7246 11.4535 33.7246 12.2402C33.7246 13.1602 33.3912 13.9535 32.7246 14.6202C32.0712 15.2735 30.9579 15.7935 29.3846 16.1802C29.7179 16.7935 30.3512 17.1002 31.2846 17.1002C31.8846 17.1002 32.5646 16.8935 33.3246 16.4802C34.0979 16.0535 34.7646 15.5002 35.3246 14.8202C35.4846 14.6335 35.6646 14.5402 35.8646 14.5402ZM30.8246 11.6402C30.3312 11.6402 29.9112 11.9269 29.5646 12.5002C29.2312 13.0735 29.0646 13.7669 29.0646 14.5802V14.6202C29.8512 14.4335 30.4712 14.1535 30.9246 13.7802C31.3779 13.4069 31.6046 12.9735 31.6046 12.4802C31.6046 12.2269 31.5312 12.0269 31.3846 11.8802C31.2512 11.7202 31.0646 11.6402 30.8246 11.6402Z" fill="#363636"/>
<path d="M41.3761 19.1602C39.6028 19.1602 38.1828 18.8269 37.1161 18.1602C36.0495 17.4802 35.5161 16.4469 35.5161 15.0602C35.5161 14.3269 35.6428 13.7669 35.8961 13.3802C36.1495 12.9935 36.5228 12.8002 37.0161 12.8002C37.3761 12.8002 37.6695 12.8935 37.8961 13.0802C38.1228 13.2669 38.2361 13.5069 38.2361 13.8002C38.2361 14.0669 38.2161 14.3002 38.1761 14.5002C38.1761 14.5535 38.1628 14.6469 38.1361 14.7802C38.1228 14.9135 38.1161 15.0535 38.1161 15.2002C38.1161 15.8002 38.4161 16.2469 39.0161 16.5402C39.6295 16.8335 40.4828 16.9802 41.5761 16.9802C42.7095 16.9802 43.5961 16.7802 44.2361 16.3802C44.8761 15.9669 45.1961 15.3935 45.1961 14.6602C45.1961 14.2069 45.0495 13.8202 44.7561 13.5002C44.4628 13.1669 44.0961 12.8935 43.6561 12.6802C43.2161 12.4535 42.5961 12.1802 41.7961 11.8602C40.7695 11.4602 39.9295 11.0802 39.2761 10.7202C38.6361 10.3602 38.0828 9.87353 37.6161 9.2602C37.1628 8.63353 36.9361 7.8602 36.9361 6.9402C36.9361 5.9802 37.1895 5.12686 37.6961 4.3802C38.2161 3.63353 38.9561 3.05353 39.9161 2.6402C40.8895 2.22686 42.0295 2.0202 43.3361 2.0202C44.3095 2.0202 45.2028 2.16686 46.0161 2.4602C46.8295 2.7402 47.4761 3.17353 47.9561 3.7602C48.4495 4.34686 48.6961 5.06686 48.6961 5.9202C48.6961 6.7602 48.5695 7.39353 48.3161 7.8202C48.0628 8.24686 47.6895 8.4602 47.1961 8.4602C46.8495 8.4602 46.5561 8.35353 46.3161 8.1402C46.0895 7.92686 45.9761 7.67353 45.9761 7.3802C45.9761 7.12686 45.9961 6.89353 46.0361 6.6802C46.0761 6.2802 46.0961 6.02686 46.0961 5.9202C46.0961 5.3602 45.8228 4.93353 45.2761 4.6402C44.7295 4.34686 44.0495 4.2002 43.2361 4.2002C42.0895 4.2002 41.2095 4.41353 40.5961 4.8402C39.9961 5.25353 39.6961 5.8402 39.6961 6.6002C39.6961 7.10686 39.8495 7.5402 40.1561 7.9002C40.4761 8.2602 40.8695 8.5602 41.3361 8.8002C41.8028 9.0402 42.4561 9.32686 43.2961 9.6602C44.3095 10.0735 45.1228 10.4469 45.7361 10.7802C46.3495 11.1135 46.8695 11.5669 47.2961 12.1402C47.7361 12.7135 47.9561 13.4202 47.9561 14.2602C47.9561 15.8335 47.3561 17.0469 46.1561 17.9002C44.9695 18.7402 43.3761 19.1602 41.3761 19.1602Z" fill="#363636"/>
</svg>
